<?xml version="1.0" encoding="utf-8"?>
<!-- Generator: Adobe Illustrator 21.1.0, SVG Export Plug-In . SVG Version: 6.00 Build 0)  -->
<svg version="1.1" id="type" xmlns="http://www.w3.org/2000/svg" xmlns:xlink="http://www.w3.org/1999/xlink" x="0px" y="0px"
	 width="139.86px" height="41px" viewBox="0 0 139.86 41" enable-background="new 0 0 139.86 41" xml:space="preserve">
<g>
	<g>
		<path fill="#A6A6A6" d="M129.333,0H9.535C9.168,0,8.806,0,8.44,0.002C8.134,0.004,7.83,0.01,7.521,0.015
			C6.856,0.031,6.182,0.072,5.517,0.191C4.848,0.309,4.226,0.509,3.616,0.818C3.018,1.125,2.471,1.523,1.998,1.997
			C1.519,2.471,1.123,3.02,0.819,3.618C0.508,4.227,0.311,4.852,0.194,5.521C0.074,6.184,0.032,6.854,0.015,7.523
			C0.006,7.83,0.005,8.138,0,8.444C0,8.807,0,9.17,0,9.536v20.929c0,0.369,0,0.73,0,1.094c0.005,0.311,0.006,0.611,0.015,0.922
			c0.017,0.67,0.059,1.34,0.179,2.002c0.117,0.67,0.314,1.298,0.625,1.904c0.303,0.596,0.7,1.145,1.178,1.614
			c0.473,0.478,1.02,0.875,1.619,1.179c0.609,0.312,1.231,0.51,1.901,0.631c0.665,0.119,1.338,0.158,2.004,0.177
			c0.309,0.007,0.613,0.011,0.919,0.011C8.806,40,9.168,40,9.535,40h119.798c0.359,0,0.725,0,1.084-0.002
			c0.305,0,0.617-0.004,0.922-0.011c0.67-0.019,1.342-0.058,2-0.177c0.67-0.121,1.293-0.318,1.908-0.631
			c0.598-0.304,1.145-0.701,1.617-1.179c0.477-0.47,0.873-1.019,1.182-1.614c0.307-0.606,0.506-1.234,0.619-1.904
			c0.123-0.662,0.162-1.332,0.186-2.002c0.004-0.311,0.004-0.611,0.004-0.922c0.008-0.363,0.008-0.725,0.008-1.094V9.536
			c0-0.366,0-0.729-0.008-1.092c0-0.307,0-0.614-0.004-0.921c-0.023-0.67-0.062-1.34-0.186-2.002
			c-0.113-0.67-0.312-1.295-0.619-1.903c-0.309-0.599-0.705-1.147-1.182-1.621c-0.473-0.474-1.02-0.872-1.617-1.179
			c-0.615-0.31-1.238-0.51-1.908-0.627c-0.658-0.119-1.33-0.16-2-0.177c-0.305-0.005-0.617-0.011-0.922-0.013
			C130.057,0,129.692,0,129.333,0L129.333,0z"/>
		<path d="M8.445,39.125c-0.305,0-0.602-0.004-0.904-0.011c-0.559-0.016-1.222-0.047-1.869-0.163c-0.61-0.11-1.153-0.29-1.657-0.548
			c-0.522-0.265-0.99-0.606-1.397-1.017c-0.414-0.406-0.754-0.873-1.021-1.396c-0.259-0.505-0.437-1.047-0.543-1.657
			c-0.122-0.673-0.153-1.355-0.167-1.875c-0.006-0.211-0.015-0.913-0.015-0.913V8.444c0,0,0.009-0.691,0.015-0.895
			c0.013-0.524,0.044-1.206,0.166-1.872C1.16,5.064,1.337,4.522,1.597,4.016c0.266-0.524,0.606-0.994,1.015-1.398
			c0.414-0.414,0.884-0.757,1.402-1.022c0.514-0.261,1.055-0.439,1.653-0.544C6.341,0.931,7.024,0.9,7.543,0.887l0.902-0.012
			h121.966l0.913,0.013c0.513,0.013,1.195,0.043,1.858,0.163c0.603,0.105,1.148,0.285,1.671,0.548
			c0.513,0.263,0.982,0.605,1.392,1.016c0.409,0.406,0.752,0.878,1.023,1.404c0.258,0.511,0.434,1.053,0.535,1.649
			c0.116,0.631,0.152,1.279,0.174,1.887c0.003,0.283,0.003,0.587,0.003,0.89c0.008,0.375,0.008,0.732,0.008,1.092v20.929
			c0,0.363,0,0.718-0.008,1.075c0,0.325,0,0.623-0.004,0.93c-0.021,0.589-0.057,1.236-0.171,1.854
			c-0.104,0.613-0.279,1.155-0.54,1.67c-0.27,0.52-0.612,0.989-1.016,1.386c-0.413,0.418-0.882,0.759-1.399,1.023
			c-0.519,0.264-1.048,0.438-1.668,0.55c-0.641,0.116-1.304,0.147-1.869,0.163c-0.293,0.007-0.6,0.011-0.897,0.011l-1.084,0.002
			L8.445,39.125z"/>
	</g>
	<g id="XMLID_5_">
		<g>
			<path fill="#FFFFFF" d="M39.063,19.816h1.701v11.361h-1.701V19.816z"/>
			<path fill="#FFFFFF" d="M42.812,23.973l0.929-4.157h1.654l-1.126,4.157H42.812z"/>
			<path fill="#FFFFFF" d="M46.828,20.714c0-0.544,0.441-0.977,0.984-0.977c0.551,0,0.992,0.433,0.992,0.977
				c0,0.535-0.441,0.969-0.992,0.969C47.27,21.682,46.828,21.249,46.828,20.714z M46.962,22.894h1.701v8.283h-1.701V22.894z"/>
			<path fill="#FFFFFF" d="M53.192,31.178v-9.842h-3.48v-1.52h8.715v1.52h-3.471v9.842H53.192z"/>
			<path fill="#FFFFFF" d="M65.539,31.178h-1.63v-1.425H63.87c-0.473,0.992-1.3,1.52-2.567,1.52c-1.803,0-2.905-1.165-2.905-3.063
				v-5.314h1.701v4.984c0,1.26,0.599,1.929,1.771,1.929c1.229,0,1.969-0.851,1.969-2.142v-4.771h1.7V31.178z"/>
			<path fill="#FFFFFF" d="M67.219,22.894h1.622v1.409h0.039c0.496-0.991,1.33-1.503,2.606-1.503c1.826,0,2.873,1.173,2.873,3.07
				v5.307h-1.708v-4.977c0-1.243-0.575-1.937-1.771-1.937c-1.221,0-1.961,0.866-1.961,2.142v4.771h-1.7V22.894z"/>
			<path fill="#FFFFFF" d="M83.102,28.745c-0.229,1.504-1.692,2.535-3.566,2.535c-2.409,0-3.905-1.614-3.905-4.205
				c0-2.598,1.504-4.283,3.834-4.283c2.291,0,3.732,1.575,3.732,4.087v0.582h-5.851v0.103c0,1.418,0.89,2.347,2.229,2.347
				c0.945,0,1.685-0.449,1.913-1.165H83.102z M77.354,26.272h4.142c-0.039-1.268-0.85-2.103-2.031-2.103
				C78.292,24.17,77.441,25.02,77.354,26.272z"/>
			<path fill="#FFFFFF" d="M87.609,22.801c1.835,0,3.149,1.016,3.189,2.479H89.2c-0.071-0.732-0.693-1.181-1.638-1.181
				c-0.921,0-1.535,0.425-1.535,1.07c0,0.496,0.409,0.827,1.268,1.04l1.394,0.322c1.669,0.401,2.299,1.016,2.299,2.229
				c0,1.496-1.417,2.52-3.44,2.52c-1.953,0-3.268-1-3.394-2.512h1.685c0.118,0.795,0.756,1.221,1.787,1.221
				c1.016,0,1.654-0.418,1.654-1.079c0-0.512-0.315-0.787-1.182-1.008l-1.48-0.362c-1.496-0.362-2.252-1.126-2.252-2.275
				C84.365,23.8,85.68,22.801,87.609,22.801z"/>
			<path fill="#FFFFFF" d="M97.021,28.013c0.126,1.126,1.221,1.866,2.717,1.866c1.433,0,2.464-0.74,2.464-1.756
				c0-0.882-0.622-1.409-2.094-1.771l-1.473-0.354c-2.087-0.504-3.055-1.48-3.055-3.062c0-1.961,1.708-3.308,4.134-3.308
				c2.401,0,4.047,1.347,4.102,3.308h-1.717c-0.102-1.134-1.039-1.819-2.409-1.819s-2.307,0.693-2.307,1.701
				c0,0.803,0.599,1.275,2.062,1.638l1.252,0.307c2.331,0.551,3.3,1.488,3.3,3.149c0,2.126-1.693,3.457-4.386,3.457
				c-2.52,0-4.221-1.3-4.331-3.354H97.021z"/>
			<path fill="#FFFFFF" d="M107.583,20.933v1.961h1.575v1.347h-1.575v4.566c0,0.709,0.315,1.039,1.008,1.039
				c0.174,0,0.449-0.023,0.56-0.039v1.339c-0.189,0.047-0.567,0.078-0.945,0.078c-1.677,0-2.33-0.63-2.33-2.235v-4.748h-1.205
				v-1.347h1.205v-1.961H107.583z"/>
			<path fill="#FFFFFF" d="M109.986,27.036c0-2.606,1.535-4.244,3.929-4.244c2.401,0,3.929,1.638,3.929,4.244
				c0,2.614-1.52,4.244-3.929,4.244S109.986,29.65,109.986,27.036z M116.111,27.036c0-1.787-0.818-2.842-2.196-2.842
				s-2.196,1.062-2.196,2.842c0,1.795,0.818,2.843,2.196,2.843S116.111,28.831,116.111,27.036z"/>
			<path fill="#FFFFFF" d="M119.162,22.894h1.622v1.409h0.039c0.26-0.937,1.016-1.495,1.992-1.495c0.244,0,0.448,0.031,0.582,0.062
				v1.591c-0.134-0.056-0.433-0.103-0.764-0.103c-1.094,0-1.771,0.74-1.771,1.905v4.913h-1.7V22.894z"/>
			<path fill="#FFFFFF" d="M131.201,28.745c-0.229,1.504-1.692,2.535-3.566,2.535c-2.409,0-3.905-1.614-3.905-4.205
				c0-2.598,1.504-4.283,3.834-4.283c2.291,0,3.732,1.575,3.732,4.087v0.582h-5.851v0.103c0,1.418,0.89,2.347,2.229,2.347
				c0.945,0,1.685-0.449,1.913-1.165H131.201z M125.453,26.272h4.142c-0.039-1.268-0.85-2.103-2.031-2.103
				C126.39,24.17,125.54,25.02,125.453,26.272z"/>
		</g>
	</g>
	<g>
		<g>
			<defs>
				<rect id="SVGID_1_" x="7.548" y="7.418" width="25.164" height="25.164"/>
			</defs>
			<clipPath id="SVGID_2_">
				<use xlink:href="#SVGID_1_"  overflow="visible"/>
			</clipPath>
			<g clip-path="url(#SVGID_2_)">
				<defs>
					<path id="SVGID_3_" d="M15.268,7.418c-0.25,0-0.5,0-0.75,0.002c-0.253,0.002-0.506,0.004-0.759,0.011
						c-0.552,0.015-1.108,0.047-1.653,0.145c-0.553,0.099-1.068,0.262-1.571,0.518c-0.494,0.252-0.946,0.58-1.338,0.972
						C8.804,9.458,8.476,9.91,8.224,10.404c-0.256,0.503-0.418,1.018-0.518,1.572c-0.098,0.545-0.13,1.101-0.145,1.653
						c-0.007,0.253-0.01,0.506-0.011,0.759c-0.001,0.241-0.002,0.482-0.002,0.723v0.178v9.421v0.178c0,0.241,0,0.482,0.002,0.723
						c0.002,0.253,0.004,0.506,0.011,0.759c0.015,0.551,0.047,1.107,0.145,1.653c0.099,0.554,0.262,1.069,0.518,1.572
						c0.252,0.494,0.58,0.946,0.972,1.338c0.392,0.392,0.844,0.721,1.338,0.972c0.503,0.256,1.018,0.418,1.571,0.518
						c0.545,0.098,1.102,0.131,1.653,0.145c0.253,0.007,0.506,0.01,0.759,0.011c0.25,0.002,0.5,0.002,0.75,0.002h0.152h9.421h0.152
						c0.25,0,0.5,0,0.75-0.002c0.253-0.002,0.506-0.004,0.759-0.011c0.552-0.015,1.108-0.047,1.653-0.145
						c0.553-0.099,1.068-0.262,1.571-0.518c0.494-0.252,0.946-0.58,1.338-0.972c0.392-0.392,0.721-0.844,0.972-1.338
						c0.256-0.503,0.418-1.018,0.518-1.572c0.098-0.545,0.13-1.101,0.145-1.653c0.007-0.253,0.01-0.506,0.011-0.759
						c0.001-0.241,0.002-0.483,0.002-0.724v-9.775c0-0.241,0-0.483-0.002-0.724c-0.002-0.253-0.004-0.506-0.011-0.759
						c-0.015-0.551-0.047-1.107-0.145-1.653c-0.099-0.554-0.262-1.069-0.518-1.572c-0.252-0.494-0.58-0.946-0.972-1.338
						c-0.392-0.392-0.844-0.721-1.338-0.972c-0.503-0.256-1.018-0.418-1.571-0.518c-0.545-0.098-1.102-0.131-1.653-0.145
						c-0.253-0.007-0.506-0.01-0.759-0.011c-0.25-0.002-0.5-0.002-0.75-0.002H15.268z"/>
				</defs>
				<clipPath id="SVGID_4_">
					<use xlink:href="#SVGID_3_"  overflow="visible"/>
				</clipPath>
				
					<linearGradient id="SVGID_5_" gradientUnits="userSpaceOnUse" x1="-1238.0273" y1="-846.0171" x2="-1238.0012" y2="-846.0171" gradientTransform="matrix(0 961.0199 961.0199 0 813059.375 1189776.375)">
					<stop  offset="0" style="stop-color:#EF4DB7"/>
					<stop  offset="1" style="stop-color:#C643FD"/>
				</linearGradient>
				<rect x="7.548" y="7.418" clip-path="url(#SVGID_4_)" fill="url(#SVGID_5_)" width="25.164" height="25.164"/>
			</g>
			<g clip-path="url(#SVGID_2_)">
				<defs>
					<path id="SVGID_6_" d="M19.973,10.615c-0.05,0.031-0.094,0.074-0.137,0.13c-0.007,0.009-0.014,0.019-0.021,0.028
						c-0.057,0.081-0.102,0.169-0.137,0.261c-0.104,0.269-0.2,0.541-0.289,0.815l-1.682,5.176h4.836l-1.682-5.176
						c-0.089-0.274-0.186-0.546-0.289-0.815c-0.035-0.092-0.08-0.181-0.137-0.261c-0.007-0.01-0.014-0.019-0.021-0.028
						c-0.043-0.056-0.087-0.1-0.137-0.13c-0.049-0.03-0.1-0.045-0.152-0.045C20.073,10.57,20.022,10.585,19.973,10.615"/>
				</defs>
				<clipPath id="SVGID_7_">
					<use xlink:href="#SVGID_6_"  overflow="visible"/>
				</clipPath>
				
					<radialGradient id="SVGID_8_" cx="-1238.2102" cy="-848.4737" r="0.0262" gradientTransform="matrix(717.8253 0 0 -717.8253 888826.75 -609031.375)" gradientUnits="userSpaceOnUse">
					<stop  offset="0" style="stop-color:#FBE3F8"/>
					<stop  offset="0.745" style="stop-color:#FBE3F8"/>
					<stop  offset="0.8082" style="stop-color:#FADEF6"/>
					<stop  offset="0.8798" style="stop-color:#F9D1F0"/>
					<stop  offset="0.9554" style="stop-color:#F6BAE7"/>
					<stop  offset="0.98" style="stop-color:#F5B1E3"/>
					<stop  offset="1" style="stop-color:#F5B1E3"/>
				</radialGradient>
				<rect x="17.707" y="10.57" clip-path="url(#SVGID_7_)" fill="url(#SVGID_8_)" width="4.836" height="6.456"/>
			</g>
			<g clip-path="url(#SVGID_2_)">
				<defs>
					<path id="SVGID_9_" d="M20.125,24.468l4.403,3.198c0.233,0.17,0.471,0.333,0.714,0.49c0.083,0.054,0.171,0.099,0.264,0.131
						c0.011,0.004,0.022,0.007,0.034,0.011c0.068,0.02,0.129,0.029,0.188,0.025c0.057-0.005,0.108-0.022,0.149-0.053
						c0.042-0.03,0.074-0.073,0.096-0.126c0.022-0.054,0.033-0.115,0.035-0.186c0-0.012,0-0.023,0-0.035
						c-0.001-0.099-0.017-0.196-0.043-0.292c-0.074-0.279-0.156-0.556-0.245-0.83l-1.682-5.175L20.125,24.468z"/>
				</defs>
				<clipPath id="SVGID_10_">
					<use xlink:href="#SVGID_9_"  overflow="visible"/>
				</clipPath>
				
					<radialGradient id="SVGID_11_" cx="-1238.2102" cy="-848.4737" r="0.0262" gradientTransform="matrix(717.8253 0 0 -717.8253 888826.75 -609031.375)" gradientUnits="userSpaceOnUse">
					<stop  offset="0" style="stop-color:#F9E3FB"/>
					<stop  offset="0.7459" style="stop-color:#F9E3FB"/>
					<stop  offset="0.8097" style="stop-color:#F8DEFB"/>
					<stop  offset="0.8826" style="stop-color:#F3D0FA"/>
					<stop  offset="0.9599" style="stop-color:#ECBAF9"/>
					<stop  offset="0.981" style="stop-color:#EAB2F9"/>
					<stop  offset="1" style="stop-color:#EAB2F9"/>
				</radialGradient>
				<rect x="20.125" y="21.625" clip-path="url(#SVGID_10_)" fill="url(#SVGID_11_)" width="5.882" height="6.701"/>
			</g>
			<g clip-path="url(#SVGID_2_)">
				<defs>
					<path id="SVGID_12_" d="M12.265,17.026c-0.288,0-0.577,0.008-0.865,0.023c-0.098,0.005-0.196,0.02-0.291,0.05
						c-0.011,0.004-0.023,0.007-0.033,0.011c-0.067,0.023-0.122,0.052-0.166,0.09c-0.044,0.037-0.074,0.081-0.09,0.13
						c-0.016,0.049-0.017,0.102-0.004,0.158c0.014,0.057,0.041,0.113,0.081,0.171c0.007,0.01,0.013,0.019,0.021,0.029
						c0.059,0.079,0.129,0.149,0.206,0.211c0.224,0.182,0.453,0.358,0.686,0.527l4.402,3.199l1.494-4.599H12.265z"/>
				</defs>
				<clipPath id="SVGID_13_">
					<use xlink:href="#SVGID_12_"  overflow="visible"/>
				</clipPath>
				
					<radialGradient id="SVGID_14_" cx="-1238.3079" cy="-848.6819" r="0.0262" gradientTransform="matrix(978.9961 0 0 -978.9961 1212297.25 -830848.875)" gradientUnits="userSpaceOnUse">
					<stop  offset="0" style="stop-color:#FAE1F8"/>
					<stop  offset="0.6" style="stop-color:#FAE1F8"/>
					<stop  offset="0.85" style="stop-color:#F7D6F7"/>
					<stop  offset="1" style="stop-color:#F7D6F7"/>
				</radialGradient>
				<rect x="10.802" y="17.026" clip-path="url(#SVGID_13_)" fill="url(#SVGID_14_)" width="6.904" height="4.599"/>
			</g>
			<g clip-path="url(#SVGID_2_)">
				<defs>
					<path id="SVGID_15_" d="M14.531,26.801c-0.089,0.274-0.171,0.551-0.245,0.83c-0.025,0.095-0.041,0.193-0.043,0.292
						c0,0.012,0,0.024,0,0.035c0.002,0.071,0.012,0.132,0.035,0.186c0.022,0.053,0.054,0.096,0.096,0.126
						c0.042,0.03,0.092,0.048,0.149,0.053c0.058,0.005,0.12-0.004,0.188-0.025c0.011-0.003,0.022-0.007,0.034-0.011
						c0.093-0.032,0.182-0.077,0.264-0.131c0.242-0.157,0.48-0.32,0.713-0.49l4.403-3.199l-2.483-1.804l-1.43-1.039L14.531,26.801z"
						/>
				</defs>
				<clipPath id="SVGID_16_">
					<use xlink:href="#SVGID_15_"  overflow="visible"/>
				</clipPath>
				
					<radialGradient id="SVGID_17_" cx="-1239.1873" cy="-848.0069" r="0.0262" gradientTransform="matrix(696.9604 0 0 -696.9604 863691.8125 -590993.0625)" gradientUnits="userSpaceOnUse">
					<stop  offset="0" style="stop-color:#FAE9FC"/>
					<stop  offset="0.669" style="stop-color:#FAE9FC"/>
					<stop  offset="0.8118" style="stop-color:#F8DEFA"/>
					<stop  offset="0.91" style="stop-color:#F6D4F8"/>
					<stop  offset="1" style="stop-color:#F6D4F8"/>
				</radialGradient>
				<rect x="14.243" y="21.625" clip-path="url(#SVGID_16_)" fill="url(#SVGID_17_)" width="5.882" height="6.701"/>
			</g>
			<g clip-path="url(#SVGID_2_)">
				<defs>
					<path id="SVGID_18_" d="M22.543,17.026l1.494,4.599l4.403-3.199c0.233-0.17,0.462-0.345,0.686-0.527
						c0.077-0.062,0.147-0.132,0.206-0.211c0.007-0.01,0.014-0.019,0.021-0.029c0.04-0.058,0.068-0.114,0.081-0.171
						c0.013-0.056,0.012-0.109-0.004-0.158c-0.016-0.049-0.046-0.093-0.09-0.13c-0.044-0.038-0.1-0.067-0.166-0.09
						c-0.011-0.004-0.022-0.008-0.033-0.011c-0.094-0.029-0.192-0.044-0.291-0.05c-0.288-0.016-0.576-0.023-0.865-0.023
						L22.543,17.026L22.543,17.026z"/>
				</defs>
				<clipPath id="SVGID_19_">
					<use xlink:href="#SVGID_18_"  overflow="visible"/>
				</clipPath>
				
					<radialGradient id="SVGID_20_" cx="-1239.1873" cy="-848.0069" r="0.0262" gradientTransform="matrix(696.9604 0 0 -696.9604 863691.8125 -590993.0625)" gradientUnits="userSpaceOnUse">
					<stop  offset="0" style="stop-color:#FAE9FB"/>
					<stop  offset="0.68" style="stop-color:#FAE9FB"/>
					<stop  offset="0.8132" style="stop-color:#F8DEF8"/>
					<stop  offset="0.98" style="stop-color:#F5CAF2"/>
					<stop  offset="1" style="stop-color:#F5CAF2"/>
				</radialGradient>
				<rect x="22.542" y="17.026" clip-path="url(#SVGID_19_)" fill="url(#SVGID_20_)" width="6.905" height="4.599"/>
			</g>
			<polygon clip-path="url(#SVGID_2_)" fill="#FFFFFF" points="17.707,17.026 16.212,21.625 17.642,22.664 20.125,24.468 
				24.037,21.625 22.543,17.026 			"/>
		</g>
	</g>
	<g id="XMLID_1_">
		<g id="XMLID_2_">
			<g id="XMLID_3_">
				<g>
					<path fill="#FFFFFF" d="M40.711,8.788c1.77,0,2.808,1.087,2.808,2.965c0,1.906-1.029,3.002-2.808,3.002h-2.154V8.788H40.711z
						 M39.483,13.911h1.125c1.249,0,1.968-0.777,1.968-2.146c0-1.348-0.732-2.134-1.968-2.134h-1.125V13.911z"/>
					<path fill="#FFFFFF" d="M44.674,8.92c0-0.311,0.244-0.546,0.575-0.546c0.331,0,0.575,0.235,0.575,0.546
						c0,0.306-0.244,0.542-0.575,0.542C44.918,9.462,44.674,9.226,44.674,8.92z M44.806,10.252h0.885v4.503h-0.885V10.252z"/>
					<path fill="#FFFFFF" d="M48.77,10.165c1.013,0,1.675,0.471,1.761,1.265H49.68c-0.083-0.331-0.405-0.542-0.91-0.542
						c-0.497,0-0.873,0.235-0.873,0.587c0,0.269,0.228,0.438,0.715,0.55l0.749,0.173c0.856,0.199,1.257,0.567,1.257,1.229
						c0,0.848-0.79,1.414-1.865,1.414c-1.071,0-1.77-0.484-1.849-1.282h0.889c0.112,0.347,0.442,0.562,0.98,0.562
						c0.554,0,0.947-0.248,0.947-0.608c0-0.269-0.21-0.442-0.661-0.55l-0.786-0.182c-0.856-0.203-1.253-0.587-1.253-1.257
						C47.021,10.727,47.753,10.165,48.77,10.165z"/>
					<path fill="#FFFFFF" d="M56.021,12.501c0,1.431-0.724,2.328-1.861,2.328c-0.641,0-1.149-0.281-1.385-0.756h-0.07v2.179h-0.889
						v-6h0.856v0.744h0.066c0.273-0.513,0.802-0.819,1.414-0.819C55.297,10.177,56.021,11.07,56.021,12.501z M55.107,12.501
						c0-0.951-0.451-1.526-1.203-1.526c-0.749,0-1.216,0.587-1.216,1.53c0,0.938,0.467,1.526,1.211,1.526
						C54.656,14.031,55.107,13.456,55.107,12.501z"/>
					<path fill="#FFFFFF" d="M56.99,12.501c0-1.452,0.811-2.336,2.126-2.336c1.311,0,2.121,0.885,2.121,2.336
						c0,1.459-0.807,2.34-2.121,2.34C57.797,14.842,56.99,13.961,56.99,12.501z M60.323,12.501c0-0.976-0.438-1.547-1.207-1.547
						c-0.773,0-1.208,0.571-1.208,1.547c0,0.984,0.435,1.55,1.208,1.55C59.885,14.052,60.323,13.481,60.323,12.501z"/>
					<path fill="#FFFFFF" d="M62.429,10.252h0.856v0.715h0.066c0.219-0.5,0.665-0.802,1.344-0.802c1.005,0,1.559,0.604,1.559,1.675
						v2.915h-0.889v-2.692c0-0.724-0.314-1.083-0.972-1.083c-0.658,0-1.075,0.438-1.075,1.141v2.634h-0.89V10.252z"/>
					<path fill="#FFFFFF" d="M67.513,8.92c0-0.311,0.244-0.546,0.574-0.546c0.331,0,0.575,0.235,0.575,0.546
						c0,0.306-0.244,0.542-0.575,0.542C67.758,9.462,67.513,9.226,67.513,8.92z M67.645,10.252h0.885v4.503h-0.885V10.252z"/>
					<path fill="#FFFFFF" d="M70.927,14.043h-0.066v0.711h-0.855V8.494h0.889v2.473h0.07c0.24-0.492,0.77-0.79,1.386-0.79
						c1.141,0,1.86,0.893,1.86,2.324c0,1.426-0.724,2.328-1.86,2.328C71.721,14.829,71.196,14.54,70.927,14.043z M70.878,12.505
						c0.004,0.943,0.468,1.526,1.216,1.526c0.753,0,1.203-0.575,1.203-1.53c0-0.947-0.45-1.526-1.203-1.526
						C71.349,10.975,70.882,11.562,70.878,12.505z"/>
					<path fill="#FFFFFF" d="M75.444,8.494h0.89v6.261h-0.89V8.494z"/>
					<path fill="#FFFFFF" d="M81.6,13.539c-0.203,0.807-0.923,1.303-1.952,1.303c-1.29,0-2.08-0.885-2.08-2.324
						c0-1.439,0.807-2.353,2.076-2.353c1.253,0,2.01,0.856,2.01,2.27v0.31h-3.181v0.05c0.029,0.79,0.488,1.29,1.199,1.29
						c0.538,0,0.906-0.194,1.071-0.546H81.6z M78.473,12.088h2.274c-0.021-0.707-0.45-1.167-1.107-1.167
						C78.982,10.921,78.523,11.385,78.473,12.088z"/>
					<path fill="#FFFFFF" d="M86.934,10.165c1.013,0,1.675,0.471,1.762,1.265h-0.853c-0.082-0.331-0.405-0.542-0.909-0.542
						c-0.496,0-0.873,0.235-0.873,0.587c0,0.269,0.228,0.438,0.716,0.55l0.748,0.173c0.856,0.199,1.258,0.567,1.258,1.229
						c0,0.848-0.79,1.414-1.865,1.414c-1.071,0-1.77-0.484-1.849-1.282h0.89c0.111,0.347,0.442,0.562,0.979,0.562
						c0.554,0,0.947-0.248,0.947-0.608c0-0.269-0.211-0.442-0.662-0.55l-0.785-0.182c-0.856-0.203-1.253-0.587-1.253-1.257
						C85.185,10.727,85.917,10.165,86.934,10.165z"/>
					<path fill="#FFFFFF" d="M93.776,14.755H92.92v-0.715h-0.07c-0.219,0.513-0.678,0.802-1.36,0.802
						c-0.996,0-1.551-0.608-1.551-1.667v-2.923h0.89v2.692c0,0.728,0.293,1.075,0.946,1.075c0.72,0,1.112-0.426,1.112-1.133v-2.634
						h0.89V14.755z"/>
					<path fill="#FFFFFF" d="M95.192,10.252h0.855v0.69h0.066c0.128-0.442,0.628-0.765,1.216-0.765c0.132,0,0.302,0.012,0.396,0.037
						v0.877c-0.074-0.025-0.339-0.054-0.496-0.054c-0.674,0-1.149,0.426-1.149,1.059v2.659h-0.889V10.252z"/>
				</g>
			</g>
		</g>
	</g>
</g>
<g>
</g>
<g>
</g>
<g>
</g>
<g>
</g>
<g>
</g>
<g>
</g>
</svg>
